<svg width="22" height="21" viewBox="0 0 22 21" fill="none" xmlns="http://www.w3.org/2000/svg">
<path d="M13.4624 9.2599L10.379 3.63607C10.1135 3.15568 9.6629 2.80605 9.13005 2.67536L7.59574 2.29351C7.22344 2.20263 6.89249 2.5508 7.00063 2.91667L8.53091 8.08132L5.215 7.28907L4.37625 5.51405C4.25144 5.24805 4.01131 5.05032 3.72599 4.981L2.64892 4.71395C2.33684 4.63799 2.03464 4.8722 2.03445 5.19411L2.02487 8.66349C2.02444 8.95257 2.14989 9.22729 2.36729 9.41368L5.58625 12.1735C5.70313 12.2737 5.84185 12.3437 5.98902 12.3802L15.1163 14.6447C16.6727 15.0291 18.3201 14.8108 19.729 14.0332C20.4587 13.6315 20.5655 12.6223 19.9343 12.0812L18.5925 10.9308C18.1203 10.5259 17.5561 10.2379 16.9499 10.0933L13.4624 9.2599Z" fill="#191919"/>
<path d="M2.16064 18.5403L20.0954 18.5403" stroke="#191919" stroke-width="3" stroke-linecap="round"/>
</svg>
