<svg width="92" height="92" viewBox="0 0 92 92" fill="none" xmlns="http://www.w3.org/2000/svg">
<path d="M87.4 18.4966C87.4138 17.825 87.3678 11.7576 81.42 5.9156C75.5642 0.1656 69.6578 0 69 0H22.9816C21.8822 0 16.1138 0.2898 10.5248 5.9892C4.7656 11.8588 4.6 17.7514 4.6 18.4V32.2H0V46H4.6V73.6C4.6 76.9764 6.4676 79.9158 9.2 81.5166V87.4C9.2 88.62 9.68464 89.79 10.5473 90.6527C11.41 91.5154 12.58 92 13.8 92H18.4C19.62 92 20.79 91.5154 21.6527 90.6527C22.5154 89.79 23 88.62 23 87.4V82.8H69V87.4C69 88.62 69.4846 89.79 70.3473 90.6527C71.21 91.5154 72.38 92 73.6 92H78.2C79.42 92 80.59 91.5154 81.4527 90.6527C82.3154 89.79 82.8 88.62 82.8 87.4V81.5258C84.1956 80.7254 85.3556 79.5714 86.1632 78.18C86.9708 76.7885 87.3974 75.2088 87.4 73.6V46H92V32.2H87.4V18.4966ZM32.2 9.2H59.8V18.4H32.2V9.2ZM20.7 73.6C18.8694 73.5994 17.114 72.8716 15.82 71.5767C14.526 70.2819 13.7994 68.526 13.8 66.6954C13.8006 64.8648 14.5284 63.1094 15.8233 61.8154C17.1181 60.5214 18.874 59.7948 20.7046 59.7954C22.5352 59.796 24.2906 60.5238 25.5846 61.8187C26.8786 63.1135 27.6052 64.8694 27.6046 66.7C27.604 68.5306 26.8762 70.286 25.5813 71.58C24.2865 72.874 22.5306 73.6006 20.7 73.6ZM41.4 50.6H13.8V27.6H41.4V50.6ZM71.3 73.6C69.4694 73.5994 67.714 72.8716 66.42 71.5767C65.126 70.2819 64.3994 68.526 64.4 66.6954C64.4006 64.8648 65.1284 63.1094 66.4233 61.8154C67.7181 60.5214 69.474 59.7948 71.3046 59.7954C73.1352 59.796 74.8906 60.5238 76.1846 61.8187C77.4786 63.1135 78.2052 64.8694 78.2046 66.7C78.204 68.5306 77.4762 70.286 76.1813 71.58C74.8865 72.874 73.1306 73.6006 71.3 73.6ZM78.2 50.6H50.6V27.6H78.2V50.6Z" fill="#F4F0E7"/>
</svg>
