<svg width="81" height="97" viewBox="0 0 81 97" fill="none" xmlns="http://www.w3.org/2000/svg">
<path d="M70.875 45.9712H10.125V20.7081H70.875M63.2812 76.287C61.2673 76.287 59.3358 75.4885 57.9117 74.0672C56.4876 72.6459 55.6875 70.7181 55.6875 68.7081C55.6875 66.698 56.4876 64.7703 57.9117 63.349C59.3358 61.9276 61.2673 61.1291 63.2812 61.1291C65.2952 61.1291 67.2267 61.9276 68.6508 63.349C70.0749 64.7703 70.875 66.698 70.875 68.7081C70.875 70.7181 70.0749 72.6459 68.6508 74.0672C67.2267 75.4885 65.2952 76.287 63.2812 76.287ZM17.7188 76.287C15.7048 76.287 13.7733 75.4885 12.3492 74.0672C10.9251 72.6459 10.125 70.7181 10.125 68.7081C10.125 66.698 10.9251 64.7703 12.3492 63.349C13.7733 61.9276 15.7048 61.1291 17.7188 61.1291C19.7327 61.1291 21.6642 61.9276 23.0883 63.349C24.5124 64.7703 25.3125 66.698 25.3125 68.7081C25.3125 70.7181 24.5124 72.6459 23.0883 74.0672C21.6642 75.4885 19.7327 76.287 17.7188 76.287ZM0 71.2344C0 75.6807 1.97437 79.6723 5.0625 82.4512V91.4449C5.0625 92.785 5.59587 94.0701 6.54527 95.0177C7.49468 95.9652 8.78234 96.4976 10.125 96.4976H15.1875C16.5302 96.4976 17.8178 95.9652 18.7672 95.0177C19.7166 94.0701 20.25 92.785 20.25 91.4449V86.3923H60.75V91.4449C60.75 92.785 61.2834 94.0701 62.2328 95.0177C63.1822 95.9652 64.4698 96.4976 65.8125 96.4976H70.875C72.2177 96.4976 73.5053 95.9652 74.4547 95.0177C75.4041 94.0701 75.9375 92.785 75.9375 91.4449V82.4512C79.0256 79.6723 81 75.6807 81 71.2344V20.7081C81 3.02387 62.8763 0.497559 40.5 0.497559C18.1237 0.497559 0 3.02387 0 20.7081V71.2344Z" fill="#F4F0E7"/>
</svg>
