<svg width="31" height="30" viewBox="0 0 31 30" fill="none" xmlns="http://www.w3.org/2000/svg">
<path d="M23.4581 28.1249C22.3144 28.1249 20.7077 27.7113 18.3019 26.3671C15.3763 24.7265 13.1134 23.2119 10.2036 20.3097C7.39815 17.506 6.03292 15.6908 4.12218 12.2138C1.96358 8.28803 2.33155 6.23022 2.74288 5.35073C3.23272 4.29955 3.95577 3.67084 4.89034 3.04682C5.42117 2.69903 5.98292 2.40089 6.56847 2.15619C6.62706 2.131 6.68155 2.10698 6.73019 2.0853C7.02022 1.95463 7.45968 1.75717 8.01632 1.96811C8.3878 2.10756 8.71944 2.39291 9.23858 2.90561C10.3032 3.95561 11.7581 6.29409 12.2948 7.44252C12.6552 8.21655 12.8937 8.72748 12.8942 9.30053C12.8942 9.97143 12.5567 10.4888 12.1472 11.0472C12.0704 11.1521 11.9942 11.2523 11.9204 11.3496C11.4745 11.9355 11.3767 12.1048 11.4411 12.4072C11.5718 13.0148 12.5462 14.8236 14.1476 16.4214C15.7489 18.0193 17.5056 18.9322 18.1155 19.0623C18.4308 19.1296 18.6036 19.0277 19.2083 18.566C19.295 18.4998 19.3841 18.4312 19.4773 18.3626C20.1019 17.898 20.5952 17.5693 21.2503 17.5693H21.2538C21.8239 17.5693 22.312 17.8165 23.1206 18.2244C24.1753 18.7564 26.5841 20.1925 27.6405 21.2583C28.1544 21.7763 28.4409 22.1068 28.581 22.4777C28.7919 23.0361 28.5933 23.4738 28.4638 23.7667C28.4421 23.8154 28.4181 23.8687 28.3929 23.9279C28.1463 24.5124 27.8464 25.0729 27.497 25.6025C26.8741 26.5341 26.2431 27.2554 25.1896 27.7458C24.6486 28.0017 24.0565 28.1314 23.4581 28.1249Z" fill="white"/>
</svg>
