<svg width="37" height="36" viewBox="0 0 37 36" fill="none" xmlns="http://www.w3.org/2000/svg">
<path d="M3.54785 24H26.0478V28.5H3.54785V24ZM31.2978 24H33.5478V28.5H31.2978V24ZM27.5478 24H29.7978V28.5H27.5478V24ZM28.8228 11.595C29.7528 10.68 30.3228 9.42 30.3228 8.025C30.3228 5.25 28.0728 3 25.2978 3V5.25C26.7978 5.25 28.0728 6.495 28.0728 8.025C28.0728 9.555 26.7978 10.8 25.2978 10.8V13.05C28.6579 13.05 31.2978 15.795 31.2978 19.155V22.5H33.5478V19.14C33.5478 15.81 31.6278 12.93 28.8228 11.595ZM24.5929 15.3H22.2978C20.7978 15.3 19.5229 13.83 19.5229 12.3C19.5229 10.77 20.7978 9.675 22.2978 9.675V7.425C20.9651 7.425 19.687 7.95442 18.7446 8.89679C17.8023 9.83916 17.2729 11.1173 17.2729 12.45C17.2729 13.7827 17.8023 15.0608 18.7446 16.0032C19.687 16.9456 20.9651 17.475 22.2978 17.475H24.5929C26.1679 17.475 27.5478 18.585 27.5478 20.55V22.5H29.7978V20.04C29.7978 17.325 27.3979 15.3 24.5929 15.3Z" fill="white"/>
</svg>
