<svg width="122" height="122" viewBox="0 0 122 122" fill="none" xmlns="http://www.w3.org/2000/svg">
<path d="M15.25 112.903V62.0701C15.25 52.483 15.25 47.6945 18.2288 44.7157C21.2077 41.7368 25.9962 41.7368 35.5833 41.7368C45.1705 41.7368 49.959 41.7368 52.9378 44.7157C55.9167 47.6945 55.9167 52.483 55.9167 62.0701" stroke="#F4F0E7" stroke-width="5"/>
<path d="M86.4173 112.903V82.4034C86.4173 72.8162 86.4173 68.0277 83.4385 65.0489C80.4596 62.0701 75.6711 62.0701 66.084 62.0701H55.9173C46.3302 62.0701 41.5417 62.0701 38.5628 65.0489C35.584 68.0277 35.584 72.8162 35.584 82.4034V112.903" stroke="#F4F0E7" stroke-width="5"/>
<path d="M106.751 112.903V40.5778C106.751 33.7661 106.751 30.3552 104.941 27.7424C103.131 25.1295 99.939 23.9299 93.5543 21.5407C81.0747 16.859 74.8375 14.5206 70.4607 17.5503C66.084 20.5901 66.084 27.2493 66.084 40.5778V62.0701" stroke="#F4F0E7" stroke-width="5"/>
<path d="M20.3337 41.7368V34.1118C20.3337 29.3182 20.3337 26.924 21.8231 25.4346C23.3125 23.9452 25.7067 23.9451 30.5003 23.9451H40.667C45.4606 23.9451 47.8548 23.9452 49.3442 25.4346C50.8337 26.924 50.8337 29.3182 50.8337 34.1118V41.7368M35.5837 21.4035V11.2368M111.834 112.903H10.167M50.8337 77.3201H71.167M50.8337 92.5701H71.167" stroke="#F4F0E7" stroke-width="5" stroke-linecap="round"/>
</svg>
