<svg width="31" height="30" viewBox="0 0 31 30" fill="none" xmlns="http://www.w3.org/2000/svg">
<path d="M28.4052 11.6084C28.2901 11.7257 28.2057 11.8695 28.1593 12.0271C28.113 12.1847 28.1061 12.3513 28.1394 12.5122C28.6839 15.261 28.3137 18.1124 27.0854 20.6311C25.8571 23.1497 23.8382 25.1971 21.337 26.4606C18.8359 27.724 15.9899 28.1341 13.2338 27.6283C10.4776 27.1224 7.9628 25.7283 6.07338 23.6589C5.98723 23.5613 5.88226 23.482 5.76477 23.4259C5.64728 23.3698 5.51967 23.338 5.38958 23.3323C5.2595 23.3267 5.12961 23.3473 5.0077 23.393C4.88578 23.4388 4.77434 23.5086 4.68005 23.5984C4.51988 23.754 4.42562 23.9652 4.41675 24.1884C4.40788 24.4115 4.48507 24.6295 4.63238 24.7974C6.78607 27.1989 9.67139 28.8233 12.8416 29.4193C16.0118 30.0153 19.2901 29.5495 22.1688 28.094C25.0476 26.6386 27.3662 24.2747 28.7657 21.3683C30.1652 18.462 30.5675 15.1753 29.9104 12.0172C29.7656 11.3151 28.9112 11.1042 28.4052 11.6102M26.1612 6.12856C26.3247 5.97021 26.4197 5.75415 26.4259 5.52662C26.4321 5.2991 26.3489 5.0782 26.1942 4.91123C23.9862 2.57902 21.0737 1.03603 17.9039 0.519187C14.7341 0.00234342 11.4824 0.540219 8.64784 2.05022C5.81333 3.56023 3.55281 5.95888 2.21338 8.87787C0.873948 11.7969 0.529662 15.0748 1.23338 18.2084C1.38738 18.9014 2.23438 19.1049 2.73672 18.6026C2.97505 18.3642 3.06672 18.0159 2.99705 17.6859C2.41267 14.9584 2.73287 12.1148 3.90915 9.58552C5.08544 7.05627 7.05377 4.97914 9.51613 3.6686C11.9785 2.35806 14.8008 1.88548 17.5558 2.3224C20.3107 2.75932 22.8483 4.08196 24.7844 6.09006C24.8718 6.18342 24.9769 6.25853 25.0935 6.31105C25.2101 6.36356 25.336 6.39245 25.4639 6.39603C25.5917 6.39961 25.719 6.37781 25.8384 6.3319C25.9578 6.286 26.0687 6.21688 26.1612 6.12856Z" fill="white"/>
<path fill-rule="evenodd" clip-rule="evenodd" d="M26.7773 2.16687C27.0205 2.16687 27.2536 2.26345 27.4255 2.43536C27.5974 2.60726 27.694 2.84042 27.694 3.08354V6.7502C27.694 6.99332 27.5974 7.22648 27.4255 7.39839C27.2536 7.57029 27.0205 7.66687 26.7773 7.66687H23.1107C22.8676 7.66687 22.6344 7.57029 22.4625 7.39839C22.2906 7.22648 22.194 6.99332 22.194 6.7502C22.194 6.50709 22.2906 6.27393 22.4625 6.10202C22.6344 5.93011 22.8676 5.83354 23.1107 5.83354H25.8607V3.08354C25.8607 2.84042 25.9573 2.60726 26.1292 2.43536C26.3011 2.26345 26.5342 2.16687 26.7773 2.16687ZM3.67001 22.603C3.75515 22.5176 3.85629 22.4499 3.96766 22.4036C4.07903 22.3574 4.19842 22.3336 4.31901 22.3335H7.98568C8.22879 22.3335 8.46195 22.4301 8.63386 22.602C8.80577 22.7739 8.90235 23.0071 8.90235 23.2502C8.90235 23.4933 8.80577 23.7265 8.63386 23.8984C8.46195 24.0703 8.22879 24.1669 7.98568 24.1669H5.23568V26.9169C5.23568 27.16 5.1391 27.3931 4.96719 27.5651C4.79528 27.737 4.56213 27.8335 4.31901 27.8335C4.0759 27.8335 3.84274 27.737 3.67083 27.5651C3.49892 27.3931 3.40235 27.16 3.40235 26.9169V23.2502C3.40213 23.1297 3.42566 23.0104 3.47159 22.8991C3.51752 22.7877 3.58494 22.6883 3.67001 22.603Z" fill="white"/>
<path d="M15.9592 15.6124V19.1709C17.1729 19.0352 18.0455 18.333 18.0455 17.3265C18.0455 16.3035 17.083 15.9222 15.9995 15.6215L15.9592 15.6124ZM13.332 12.5342C13.332 13.5517 14.377 13.9734 15.1379 14.1879V10.8585C14.0342 11.0052 13.332 11.6652 13.332 12.5342Z" fill="white"/>
<path fill-rule="evenodd" clip-rule="evenodd" d="M15.5485 24.1667C17.9797 24.1667 20.3112 23.2009 22.0303 21.4818C23.7494 19.7628 24.7152 17.4312 24.7152 15C24.7152 12.5689 23.7494 10.2373 22.0303 8.51823C20.3112 6.79914 17.9797 5.83337 15.5485 5.83337C13.1174 5.83337 10.7858 6.79914 9.06669 8.51823C7.34761 10.2373 6.38184 12.5689 6.38184 15C6.38184 17.4312 7.34761 19.7628 9.06669 21.4818C10.7858 23.2009 13.1174 24.1667 15.5485 24.1667ZM15.9592 21.4167H15.1378V20.2984C13.167 20.17 11.9643 19.0664 11.8488 17.486H13.1322C13.2238 18.5182 14.0855 19.0609 15.1378 19.1709V15.3759L14.7363 15.2604C13.1322 14.8002 12.1293 13.977 12.1293 12.5947C12.1293 11.018 13.4182 9.92721 15.136 9.75304V8.58337H15.961V9.73654C17.776 9.85754 19.0593 10.9704 19.107 12.4334H17.9043C17.7943 11.5204 17.0225 10.9484 15.961 10.8439V14.4079L16.3607 14.5179C17.424 14.8002 19.2482 15.4217 19.2482 17.3467C19.2482 18.9105 18.0657 20.1535 15.9592 20.2984V21.4167Z" fill="white"/>
</svg>
