<?xml version="1.0" encoding="UTF-8"?>
<svg id="_레이어_2" data-name="레이어 2" xmlns="http://www.w3.org/2000/svg" viewBox="0 0 1300.36 143.45">
  <defs>
    <style>
      .cls-1 {
        stroke-miterlimit: 10;
      }

      .cls-1, .cls-2 {
        fill: none;
        stroke: #f4f0e7;
        stroke-linecap: round;
        stroke-width: 6px;
      }

      .cls-3 {
        fill: #f4f0e7;
        font-family: esamanruOTFBold-KSCpc-EUC-H, 'esamanru OTF';
        font-size: 125px;
      }

      .cls-2 {
        stroke-linejoin: round;
      }
    </style>
  </defs>
  <g id="_레이어_1-2" data-name="레이어 1">
    <g>
      <g>
        <path class="cls-1" d="M397.87,78.37c-.67-3.7-1.02-7.52-1.02-11.41,0-35.32,28.63-63.96,63.96-63.96,18.95,0,35.97,8.24,47.68,21.33"/>
        <path class="cls-1" d="M524.77,66.96c0,35.32-28.63,63.96-63.96,63.96-26.9,0-49.92-16.6-59.37-40.12"/>
        <path class="cls-2" d="M555.52,34.12c-.7-1.38-2.08-2.46-3.57-2.97-2.07-.7-4.34-.5-6.49-.11-6.5,1.19-12.55,4.07-18.78,6.31s-12.97,3.86-19.42,2.4c-5.88-1.33-10.89-5.05-16.31-7.71s-12.14-4.17-17.3-1.04c4.44,6.37,10.07,11.91,16.49,16.26.63.43,1.34.93,1.46,1.69.13.83-.49,1.58-1.11,2.16-4.39,4.09-10.72,6.02-16.65,5.07-5.93-.95-11.52-4.59-17.47-3.79-.43.06-.89.16-1.16.5-.57.71.14,1.72.8,2.35,1.24,1.16,2.48,2.32,3.72,3.48,2.64,2.47,5.28,4.93,8.05,7.24,4.74,3.95,10.33,6.72,16.49,4.66,7.33-2.45,14.47-6.14,21.59-9.16,14.39-6.1,28.78-12.21,43.16-18.31,1.66-.7,3.35-1.43,4.72-2.61s2.38-2.91,2.25-4.71c-.04-.6-.22-1.18-.48-1.71Z"/>
        <path class="cls-2" d="M379.91,74.29c-2.93,3.67-7.7,10.9-4.28,15.58,4.53,6.21,19.38,2.07,25.48,1.06,0,0,7.76-1.47,50.84-16"/>
      </g>
      <text class="cls-3" transform="translate(0 104.95) scale(1.43 1)"><tspan x="0" y="0">VIA</tspan></text>
      <text class="cls-3" transform="translate(564.89 104.95) scale(1.41 1)"><tspan x="0" y="0">FLIGHT</tspan></text>
    </g>
  </g>
</svg>