<svg width="28" height="28" viewBox="0 0 28 28" fill="none" xmlns="http://www.w3.org/2000/svg">
<path fill-rule="evenodd" clip-rule="evenodd" d="M12.1139 5.47002C13.5643 6.44349 14.6228 7.92118 15.0946 9.63111C15.5664 11.341 15.4198 13.1681 14.6817 14.776C15.9996 15.8161 17.6038 16.404 19.2662 16.456C20.9287 16.508 22.5649 16.0216 23.9422 15.0658C25.3196 14.1101 26.3679 12.7336 26.9383 11.1321C27.5086 9.53067 27.572 7.78566 27.1193 6.14516C26.6667 4.50467 25.721 3.05216 24.4168 1.99412C23.1126 0.936081 21.5162 0.326342 19.8545 0.251578C18.1929 0.176813 16.5505 0.640828 15.1609 1.57766C13.7712 2.5145 12.7051 3.87648 12.1139 5.47002ZM19.511 7.60202C20.1841 7.60202 20.7305 8.16202 20.7305 8.85202V12.44C20.7305 12.7715 20.602 13.0895 20.3733 13.3239C20.1446 13.5583 19.8344 13.69 19.511 13.69C19.1875 13.69 18.8774 13.5583 18.6486 13.3239C18.4199 13.0895 18.2915 12.7715 18.2915 12.44V8.85202C18.2915 8.16202 18.8378 7.60202 19.511 7.60202ZM18.0807 4.44202C18.0807 5.38402 18.8417 5.79802 19.3783 5.85802C19.4236 5.86326 19.4692 5.86593 19.5149 5.86602C20.0476 5.86602 20.9471 5.46602 20.9471 4.44202C20.9471 3.49802 20.1861 3.08402 19.6495 3.02402C19.6042 3.01877 19.5586 3.01609 19.5129 3.01602C18.9802 3.01602 18.0807 3.41602 18.0807 4.44202ZM8.16268 16.518C8.79588 16.5312 9.42527 16.4147 10.014 16.1754C10.6027 15.9361 11.139 15.5788 11.5913 15.1244C12.0437 14.6701 12.403 14.1278 12.6483 13.5293C12.8937 12.9308 13.02 12.2882 13.02 11.639C13.02 10.9899 12.8937 10.3472 12.6483 9.74873C12.403 9.15024 12.0437 8.60794 11.5913 8.15358C11.139 7.69922 10.6027 7.34194 10.014 7.10265C9.42527 6.86336 8.79588 6.74687 8.16268 6.76002C6.91693 6.78587 5.73072 7.31126 4.85863 8.22344C3.98654 9.13561 3.49808 10.3619 3.49808 11.639C3.49808 12.9162 3.98654 14.1424 4.85863 15.0546C5.73072 15.9668 6.91693 16.4922 8.16268 16.518ZM0.230968 26.274C0.227731 24.2324 0.974002 22.2643 2.32147 20.7608C3.66894 19.2573 5.51897 18.3285 7.50389 18.1589C9.48882 17.9893 11.4633 18.5914 13.035 19.8456C14.6067 21.0997 15.6605 22.914 15.9871 24.928H26.0495C26.4376 24.928 26.8099 25.0861 27.0843 25.3674C27.3587 25.6487 27.5129 26.0302 27.5129 26.428C27.5129 26.8258 27.3587 27.2074 27.0843 27.4887C26.8099 27.77 26.4376 27.928 26.0495 27.928H1.73341C1.36291 27.9279 1.00625 27.7838 0.735375 27.5247C0.464501 27.2656 0.299582 26.9109 0.273894 26.532C0.246732 26.4488 0.232894 26.3617 0.232919 26.274H0.230968Z" fill="white"/>
</svg>
