<svg width="21" height="30" viewBox="0 0 21 30" fill="none" xmlns="http://www.w3.org/2000/svg">
<path d="M2.98435 28.3333C2.24324 28.3333 1.60935 28.0694 1.08268 27.5417C0.554904 27.015 0.291016 26.3817 0.291016 25.6417V8.33333C0.291016 7.59333 0.554904 6.96 1.08268 6.43333C1.60935 5.90556 2.24268 5.64167 2.98268 5.64167H6.57268V2.69167C6.57268 1.95167 6.83657 1.31833 7.36435 0.791667C7.89102 0.263889 8.52435 0 9.26435 0H11.831C12.571 0 13.2043 0.263889 13.731 0.791667C14.2588 1.31833 14.5227 1.95167 14.5227 2.69167V5.64167H18.111C18.8521 5.64167 19.486 5.905 20.0127 6.43167C20.5405 6.95944 20.8043 7.59333 20.8043 8.33333V25.6417C20.8043 26.3817 20.5405 27.015 20.0127 27.5417C19.486 28.0694 18.8527 28.3333 18.1127 28.3333V28.7167C18.1127 29.0611 17.9849 29.3611 17.7293 29.6167C17.4738 29.8722 17.1738 30 16.8293 30C16.4849 30 16.1849 29.8722 15.9293 29.6167C15.6749 29.3611 15.5477 29.0611 15.5477 28.7167V28.3333H5.54768V28.7167C5.54768 29.0611 5.4199 29.3611 5.16435 29.6167C4.90879 29.8722 4.60879 30 4.26435 30C3.92101 30 3.62157 29.8722 3.36602 29.6167C3.11046 29.3611 2.98268 29.0611 2.98268 28.7167L2.98435 28.3333ZM6.57268 23.7167H8.23935V10.2583H6.57268V23.7167ZM12.856 23.7167H14.5227V10.2583H12.856V23.7167ZM8.23935 5.64167H12.856V2.69167C12.856 2.39278 12.7599 2.14722 12.5677 1.955C12.3743 1.76278 12.1282 1.66667 11.8293 1.66667H9.26602C8.96601 1.66667 8.7199 1.76278 8.52768 1.955C8.33546 2.14722 8.23935 2.39278 8.23935 2.69167V5.64167Z" fill="white"/>
</svg>
