<svg width="1760" height="26" viewBox="0 0 1760 26" fill="none" xmlns="http://www.w3.org/2000/svg">
<path d="M592 26L592 0" stroke="#EC4D27"/>
<path d="M888 10L888 2" stroke="#EC4D27"/>
<path d="M1184 10L1184 2" stroke="#EC4D27"/>
<mask id="path-4-inside-1_97_382" fill="white">
<path d="M0 14C0 11.2386 2.23858 9 5 9H1459C1461.76 9 1464 11.2386 1464 14V25H0V14Z"/>
</mask>
<path d="M-1 14C-1 10.6863 1.68629 8 5 8H1459C1462.31 8 1465 10.6863 1465 14H1463C1463 11.7909 1461.21 10 1459 10H5C2.79086 10 1 11.7909 1 14H-1ZM1464 25H0H1464ZM-1 25V14C-1 10.6863 1.68629 8 5 8V10C2.79086 10 1 11.7909 1 14V25H-1ZM1459 8C1462.31 8 1465 10.6863 1465 14V25H1463V14C1463 11.7909 1461.21 10 1459 10V8Z" fill="#EC4D27" mask="url(#path-4-inside-1_97_382)"/>
<mask id="path-6-inside-2_97_382" fill="white">
<path d="M1480 14C1480 11.2386 1482.24 9 1485 9H1755C1757.76 9 1760 11.2386 1760 14V25H1480V14Z"/>
</mask>
<path d="M1479 14C1479 10.6863 1481.69 8 1485 8H1755C1758.31 8 1761 10.6863 1761 14H1759C1759 11.7909 1757.21 10 1755 10H1485C1482.79 10 1481 11.7909 1481 14H1479ZM1760 25H1480H1760ZM1479 25V14C1479 10.6863 1481.69 8 1485 8V10C1482.79 10 1481 11.7909 1481 14V25H1479ZM1755 8C1758.31 8 1761 10.6863 1761 14V25H1759V14C1759 11.7909 1757.21 10 1755 10V8Z" fill="#EC4D27" mask="url(#path-6-inside-2_97_382)"/>
</svg>
