<svg width="110" height="88" viewBox="0 0 110 88" fill="none" xmlns="http://www.w3.org/2000/svg">
<path d="M109.043 22V33C109.043 33.9725 108.661 34.9051 107.979 35.5927C107.297 36.2804 106.373 36.6667 105.409 36.6667C104.445 36.6667 103.52 36.2804 102.839 35.5927C102.157 34.9051 101.774 33.9725 101.774 33V22C101.774 21.0275 102.157 20.0949 102.839 19.4073C103.52 18.7196 104.445 18.3333 105.409 18.3333C106.373 18.3333 107.297 18.7196 107.979 19.4073C108.661 20.0949 109.043 21.0275 109.043 22ZM3.63478 18.3333C2.67078 18.3333 1.74626 18.7196 1.0646 19.4073C0.382949 20.0949 0 21.0275 0 22V33C0 33.9725 0.382949 34.9051 1.0646 35.5927C1.74626 36.2804 2.67078 36.6667 3.63478 36.6667C4.59879 36.6667 5.52331 36.2804 6.20496 35.5927C6.88662 34.9051 7.26957 33.9725 7.26957 33V22C7.26957 21.0275 6.88662 20.0949 6.20496 19.4073C5.52331 18.7196 4.59879 18.3333 3.63478 18.3333ZM94.5044 14.6667V80.6667C94.5044 82.6116 93.7385 84.4769 92.3752 85.8521C91.0118 87.2274 89.1628 88 87.2348 88H76.3304C74.4024 88 72.5534 87.2274 71.1901 85.8521C69.8268 84.4769 69.0609 82.6116 69.0609 80.6667V77H39.9826V80.6667C39.9826 82.6116 39.2167 84.4769 37.8534 85.8521C36.4901 87.2274 34.6411 88 32.713 88H21.8087C19.8807 88 18.0316 87.2274 16.6683 85.8521C15.305 84.4769 14.5391 82.6116 14.5391 80.6667V14.6667C14.5391 10.7768 16.0709 7.0463 18.7975 4.29577C21.5242 1.54523 25.2222 0 29.0783 0H79.9652C83.8212 0 87.5193 1.54523 90.2459 4.29577C92.9726 7.0463 94.5044 10.7768 94.5044 14.6667ZM43.6174 53.1667C43.6174 52.0789 43.2976 51.0155 42.6985 50.111C42.0994 49.2066 41.2479 48.5016 40.2517 48.0853C39.2554 47.6691 38.1592 47.5601 37.1016 47.7723C36.0439 47.9846 35.0725 48.5084 34.31 49.2776C33.5475 50.0468 33.0282 51.0268 32.8178 52.0937C32.6074 53.1606 32.7154 54.2664 33.1281 55.2714C33.5407 56.2764 34.2396 57.1354 35.1362 57.7397C36.0328 58.3441 37.0869 58.6667 38.1652 58.6667C39.6112 58.6667 40.998 58.0872 42.0205 57.0558C43.043 56.0243 43.6174 54.6254 43.6174 53.1667ZM76.3304 53.1667C76.3304 52.0789 76.0107 51.0155 75.4116 50.111C74.8125 49.2066 73.961 48.5016 72.9647 48.0853C71.9685 47.6691 70.8722 47.5601 69.8146 47.7723C68.757 47.9846 67.7855 48.5084 67.023 49.2776C66.2605 50.0468 65.7412 51.0268 65.5309 52.0937C65.3205 53.1606 65.4285 54.2664 65.8411 55.2714C66.2538 56.2764 66.9526 57.1354 67.8492 57.7397C68.7458 58.3441 69.7999 58.6667 70.8783 58.6667C72.3243 58.6667 73.7111 58.0872 74.7335 57.0558C75.756 56.0243 76.3304 54.6254 76.3304 53.1667ZM87.2348 18.3333H21.8087V36.6667H87.2348V18.3333Z" fill="#F4F0E7"/>
</svg>
