<svg width="1760" height="26" viewBox="0 0 1760 26" fill="none" xmlns="http://www.w3.org/2000/svg">
<path d="M888 26L888 0" stroke="#2C6E49"/>
<path d="M592 10L592 2" stroke="#2C6E49"/>
<path d="M1184 11L1184 3" stroke="#2C6E49"/>
<mask id="path-4-inside-1_451_1863" fill="white">
<path d="M0 15C0 12.2386 2.23858 10 5 10H1459C1461.76 10 1464 12.2386 1464 15V26H0V15Z"/>
</mask>
<path d="M-1 15C-1 11.6863 1.68629 9 5 9H1459C1462.31 9 1465 11.6863 1465 15H1463C1463 12.7909 1461.21 11 1459 11H5C2.79086 11 1 12.7909 1 15H-1ZM1464 26H0H1464ZM-1 26V15C-1 11.6863 1.68629 9 5 9V11C2.79086 11 1 12.7909 1 15V26H-1ZM1459 9C1462.31 9 1465 11.6863 1465 15V26H1463V15C1463 12.7909 1461.21 11 1459 11V9Z" fill="#2C6E49" mask="url(#path-4-inside-1_451_1863)"/>
<mask id="path-6-inside-2_451_1863" fill="white">
<path d="M1480 15C1480 12.2386 1482.24 10 1485 10H1755C1757.76 10 1760 12.2386 1760 15V26H1480V15Z"/>
</mask>
<path d="M1479 15C1479 11.6863 1481.69 9 1485 9H1755C1758.31 9 1761 11.6863 1761 15H1759C1759 12.7909 1757.21 11 1755 11H1485C1482.79 11 1481 12.7909 1481 15H1479ZM1760 26H1480H1760ZM1479 26V15C1479 11.6863 1481.69 9 1485 9V11C1482.79 11 1481 12.7909 1481 15V26H1479ZM1755 9C1758.31 9 1761 11.6863 1761 15V26H1759V15C1759 12.7909 1757.21 11 1755 11V9Z" fill="#2C6E49" mask="url(#path-6-inside-2_451_1863)"/>
</svg>
