<svg width="37" height="36" viewBox="0 0 37 36" fill="none" xmlns="http://www.w3.org/2000/svg">
<path d="M12.5479 27C12.1229 27 11.7669 26.856 11.4799 26.568C11.1929 26.28 11.0489 25.924 11.0479 25.5C11.0479 25.075 11.1919 24.719 11.4799 24.432C11.7679 24.145 12.1239 24.001 12.5479 24C12.9729 24 13.3294 24.144 13.6174 24.432C13.9054 24.72 14.0489 25.076 14.0479 25.5C14.0479 25.925 13.9039 26.2815 13.6159 26.5695C13.3279 26.8575 12.9719 27.001 12.5479 27ZM18.5479 27C18.1229 27 17.7669 26.856 17.4799 26.568C17.1929 26.28 17.0489 25.924 17.0479 25.5C17.0479 25.075 17.1919 24.719 17.4799 24.432C17.7679 24.145 18.1239 24.001 18.5479 24C18.9729 24 19.3294 24.144 19.6174 24.432C19.9054 24.72 20.0489 25.076 20.0479 25.5C20.0479 25.925 19.9039 26.2815 19.6159 26.5695C19.3279 26.8575 18.9719 27.001 18.5479 27ZM24.5478 27C24.1229 27 23.7669 26.856 23.4799 26.568C23.1929 26.28 23.0489 25.924 23.0479 25.5C23.0479 25.075 23.1919 24.719 23.4799 24.432C23.7679 24.145 24.1238 24.001 24.5478 24C24.9729 24 25.3293 24.144 25.6173 24.432C25.9053 24.72 26.0489 25.076 26.0478 25.5C26.0478 25.925 25.9039 26.2815 25.6159 26.5695C25.3279 26.8575 24.9718 27.001 24.5478 27ZM8.04785 21V18C8.04785 15.35 8.89785 13.05 10.5979 11.1C12.2979 9.15 14.4479 8 17.0479 7.65V4.5H20.0479V7.65C22.6479 8 24.7978 9.15 26.4978 11.1C28.1978 13.05 29.0478 15.35 29.0478 18V21H8.04785ZM11.0479 18H26.0478C26.0478 15.925 25.3163 14.1565 23.8533 12.6945C22.3904 11.2325 20.6219 10.501 18.5479 10.5C16.4729 10.5 14.7044 11.2315 13.2424 12.6945C11.7804 14.1575 11.0489 15.926 11.0479 18ZM12.5479 31.5C12.1229 31.5 11.7669 31.356 11.4799 31.068C11.1929 30.78 11.0489 30.424 11.0479 30C11.0479 29.575 11.1919 29.219 11.4799 28.932C11.7679 28.645 12.1239 28.501 12.5479 28.5C12.9729 28.5 13.3294 28.644 13.6174 28.932C13.9054 29.22 14.0489 29.576 14.0479 30C14.0479 30.425 13.9039 30.7815 13.6159 31.0695C13.3279 31.3575 12.9719 31.501 12.5479 31.5ZM18.5479 31.5C18.1229 31.5 17.7669 31.356 17.4799 31.068C17.1929 30.78 17.0489 30.424 17.0479 30C17.0479 29.575 17.1919 29.219 17.4799 28.932C17.7679 28.645 18.1239 28.501 18.5479 28.5C18.9729 28.5 19.3294 28.644 19.6174 28.932C19.9054 29.22 20.0489 29.576 20.0479 30C20.0479 30.425 19.9039 30.7815 19.6159 31.0695C19.3279 31.3575 18.9719 31.501 18.5479 31.5ZM24.5478 31.5C24.1229 31.5 23.7669 31.356 23.4799 31.068C23.1929 30.78 23.0489 30.424 23.0479 30C23.0479 29.575 23.1919 29.219 23.4799 28.932C23.7679 28.645 24.1238 28.501 24.5478 28.5C24.9729 28.5 25.3293 28.644 25.6173 28.932C25.9053 29.22 26.0489 29.576 26.0478 30C26.0478 30.425 25.9039 30.7815 25.6159 31.0695C25.3279 31.3575 24.9718 31.501 24.5478 31.5Z" fill="white"/>
</svg>
