<svg width="22" height="28" viewBox="0 0 22 28" fill="none" xmlns="http://www.w3.org/2000/svg">
<path d="M4.54785 23C4.12285 23 3.76685 22.856 3.47985 22.568C3.19285 22.28 3.04885 21.924 3.04785 21.5C3.04785 21.075 3.19185 20.719 3.47985 20.432C3.76785 20.145 4.12385 20.001 4.54785 20C4.97285 20 5.32935 20.144 5.61735 20.432C5.90535 20.72 6.04885 21.076 6.04785 21.5C6.04785 21.925 5.90385 22.2815 5.61585 22.5695C5.32785 22.8575 4.97185 23.001 4.54785 23ZM10.5479 23C10.1229 23 9.76685 22.856 9.47985 22.568C9.19285 22.28 9.04885 21.924 9.04785 21.5C9.04785 21.075 9.19185 20.719 9.47985 20.432C9.76785 20.145 10.1239 20.001 10.5479 20C10.9729 20 11.3294 20.144 11.6174 20.432C11.9054 20.72 12.0489 21.076 12.0479 21.5C12.0479 21.925 11.9039 22.2815 11.6159 22.5695C11.3279 22.8575 10.9719 23.001 10.5479 23ZM16.5478 23C16.1229 23 15.7669 22.856 15.4799 22.568C15.1929 22.28 15.0489 21.924 15.0479 21.5C15.0479 21.075 15.1919 20.719 15.4799 20.432C15.7679 20.145 16.1238 20.001 16.5478 20C16.9729 20 17.3293 20.144 17.6173 20.432C17.9053 20.72 18.0489 21.076 18.0478 21.5C18.0478 21.925 17.9039 22.2815 17.6159 22.5695C17.3279 22.8575 16.9718 23.001 16.5478 23ZM0.0478516 17V14C0.0478516 11.35 0.897851 9.05 2.59785 7.1C4.29785 5.15 6.44785 4 9.04785 3.65V0.5H12.0479V3.65C14.6479 4 16.7978 5.15 18.4978 7.1C20.1978 9.05 21.0478 11.35 21.0478 14V17H0.0478516ZM3.04785 14H18.0478C18.0478 11.925 17.3163 10.1565 15.8533 8.6945C14.3904 7.2325 12.6219 6.501 10.5479 6.5C8.47285 6.5 6.70435 7.2315 5.24235 8.6945C3.78035 10.1575 3.04885 11.926 3.04785 14ZM4.54785 27.5C4.12285 27.5 3.76685 27.356 3.47985 27.068C3.19285 26.78 3.04885 26.424 3.04785 26C3.04785 25.575 3.19185 25.219 3.47985 24.932C3.76785 24.645 4.12385 24.501 4.54785 24.5C4.97285 24.5 5.32935 24.644 5.61735 24.932C5.90535 25.22 6.04885 25.576 6.04785 26C6.04785 26.425 5.90385 26.7815 5.61585 27.0695C5.32785 27.3575 4.97185 27.501 4.54785 27.5ZM10.5479 27.5C10.1229 27.5 9.76685 27.356 9.47985 27.068C9.19285 26.78 9.04885 26.424 9.04785 26C9.04785 25.575 9.19185 25.219 9.47985 24.932C9.76785 24.645 10.1239 24.501 10.5479 24.5C10.9729 24.5 11.3294 24.644 11.6174 24.932C11.9054 25.22 12.0489 25.576 12.0479 26C12.0479 26.425 11.9039 26.7815 11.6159 27.0695C11.3279 27.3575 10.9719 27.501 10.5479 27.5ZM16.5478 27.5C16.1229 27.5 15.7669 27.356 15.4799 27.068C15.1929 26.78 15.0489 26.424 15.0479 26C15.0479 25.575 15.1919 25.219 15.4799 24.932C15.7679 24.645 16.1238 24.501 16.5478 24.5C16.9729 24.5 17.3293 24.644 17.6173 24.932C17.9053 25.22 18.0489 25.576 18.0478 26C18.0478 26.425 17.9039 26.7815 17.6159 27.0695C17.3279 27.3575 16.9718 27.501 16.5478 27.5Z" fill="white"/>
</svg>
