<svg width="81" height="97" viewBox="0 0 81 97" fill="none" xmlns="http://www.w3.org/2000/svg">
<path d="M4.9926e-06 68.8076V20.7376C4.9926e-06 16.2679 1.16101 12.704 3.48301 10.0458C5.80501 7.38763 8.86275 5.36363 12.6563 3.97381C16.4531 2.584 20.7782 1.65633 25.6314 1.19082C30.4847 0.725295 35.4409 0.494222 40.5 0.497595C46.0688 0.497595 51.3219 0.730355 56.2596 1.19587C61.1972 1.66139 65.5003 2.58906 69.1689 3.97887C72.8376 5.36869 75.7266 7.39269 77.8359 10.0509C79.9453 12.7091 81 16.2713 81 20.7376V68.8076C81 73.7832 79.2923 77.9797 75.8768 81.3969C72.4613 84.814 68.2627 86.5209 63.2812 86.5176L70.875 94.1076V96.6376H60.75L50.625 86.5176H30.375L20.25 96.6376H10.125V94.1076L17.7188 86.5176C12.7406 86.5176 8.54213 84.8107 5.12325 81.3969C1.70438 77.983 -0.00337001 73.7866 4.9926e-06 68.8076ZM10.125 40.9776H35.4375V25.7976H10.125V40.9776ZM45.5625 40.9776H70.875V25.7976H45.5625V40.9776ZM22.7813 71.3376C24.975 71.3376 26.7891 70.6207 28.2234 69.1871C29.6578 67.7534 30.375 65.9402 30.375 63.7476C30.375 61.5549 29.6578 59.7417 28.2234 58.3081C26.7891 56.8744 24.975 56.1576 22.7813 56.1576C20.5875 56.1576 18.7734 56.8744 17.3391 58.3081C15.9047 59.7417 15.1875 61.5549 15.1875 63.7476C15.1875 65.9402 15.9047 67.7534 17.3391 69.1871C18.7734 70.6207 20.5875 71.3376 22.7813 71.3376ZM58.2188 71.3376C60.4125 71.3376 62.2266 70.6207 63.6609 69.1871C65.0953 67.7534 65.8125 65.9402 65.8125 63.7476C65.8125 61.5549 65.0953 59.7417 63.6609 58.3081C62.2266 56.8744 60.4125 56.1576 58.2188 56.1576C56.025 56.1576 54.2109 56.8744 52.7766 58.3081C51.3422 59.7417 50.625 61.5549 50.625 63.7476C50.625 65.9402 51.3422 67.7534 52.7766 69.1871C54.2109 70.6207 56.025 71.3376 58.2188 71.3376Z" fill="#F4F0E7"/>
</svg>
