<svg width="92" height="92" viewBox="0 0 92 92" fill="none" xmlns="http://www.w3.org/2000/svg">
<path d="M86.3512 37.513L80.0584 18.6346C79.1455 15.886 77.3897 13.495 75.0403 11.8013C72.691 10.1076 69.8676 9.19743 66.9714 9.2H55.2V0H36.8V9.2H25.0286C22.1324 9.19743 19.309 10.1076 16.9597 11.8013C14.6103 13.495 12.8545 15.886 11.9416 18.6346L5.6488 37.513C3.97542 38.2132 2.54638 39.3924 1.54131 40.9025C0.536236 42.4126 -2.21214e-06 44.186 0 46V69C0 72.3948 1.8584 75.3296 4.6 76.9258V87.4C4.6 88.62 5.08464 89.79 5.94731 90.6527C6.80998 91.5154 7.98 92 9.2 92H13.8C15.02 92 16.19 91.5154 17.0527 90.6527C17.9154 89.79 18.4 88.62 18.4 87.4V78.2H73.6V87.4C73.6 88.62 74.0846 89.79 74.9473 90.6527C75.81 91.5154 76.98 92 78.2 92H82.8C84.02 92 85.19 91.5154 86.0527 90.6527C86.9154 89.79 87.4 88.62 87.4 87.4V76.9258C88.7956 76.1254 89.9556 74.9714 90.7632 73.58C91.5708 72.1885 91.9974 70.6088 92 69V46C92 44.186 91.4638 42.4126 90.4587 40.9025C89.4536 39.3924 88.0246 38.2132 86.3512 37.513ZM25.0286 18.4H66.9668C68.9494 18.4 70.7066 19.6604 71.3322 21.5464L76.4198 36.8H15.5802L20.6632 21.5464C20.9684 20.6301 21.5543 19.833 22.3378 19.2683C23.1214 18.7035 24.0628 18.3998 25.0286 18.4ZM16.1 64.4C15.1936 64.3997 14.2961 64.2209 13.4588 63.8737C12.6215 63.5266 11.8607 63.0179 11.22 62.3767C10.5793 61.7356 10.0711 60.9745 9.72453 60.137C9.37793 59.2994 9.1997 58.4018 9.2 57.4954C9.2003 56.589 9.37913 55.6915 9.72629 54.8542C10.0734 54.0169 10.5821 53.2561 11.2233 52.6154C11.8644 51.9747 12.6255 51.4665 13.463 51.1199C14.3006 50.7733 15.1982 50.5951 16.1046 50.5954C17.9352 50.596 19.6906 51.3238 20.9846 52.6187C22.2786 53.9135 23.0052 55.6694 23.0046 57.5C23.004 59.3306 22.2762 61.086 20.9813 62.38C19.6865 63.674 17.9306 64.4006 16.1 64.4ZM75.9 64.4C74.9936 64.3997 74.0961 64.2209 73.2588 63.8737C72.4215 63.5266 71.6607 63.0179 71.02 62.3767C70.3793 61.7356 69.8711 60.9745 69.5245 60.137C69.1779 59.2994 68.9997 58.4018 69 57.4954C69.0003 56.589 69.1791 55.6915 69.5263 54.8542C69.8734 54.0169 70.3821 53.2561 71.0233 52.6154C71.6644 51.9747 72.4255 51.4665 73.263 51.1199C74.1006 50.7733 74.9982 50.5951 75.9046 50.5954C77.7352 50.596 79.4906 51.3238 80.7846 52.6187C82.0786 53.9135 82.8052 55.6694 82.8046 57.5C82.804 59.3306 82.0762 61.086 80.7813 62.38C79.4865 63.674 77.7306 64.4006 75.9 64.4Z" fill="#F4F0E7"/>
</svg>
