<svg width="34" height="34" viewBox="0 0 34 34" fill="none" xmlns="http://www.w3.org/2000/svg">
<rect width="34" height="34" rx="3" fill="white"/>
<path d="M17 8.39535C13.6662 8.39535 11.3125 10.947 11.3125 14.0874C11.3125 15.5163 11.8655 16.48 12.5594 17.3991C12.7099 17.5991 12.863 17.7916 13.0205 17.9898L13.1045 18.094C13.2882 18.3265 13.4781 18.5665 13.6558 18.814C14.0093 19.3079 14.3409 19.8633 14.5264 20.52C14.5718 20.6956 14.5508 20.8832 14.4679 21.0426C14.385 21.202 14.2467 21.3206 14.0827 21.3731C13.9186 21.4256 13.7417 21.4077 13.5898 21.3234C13.438 21.2391 13.3231 21.095 13.2699 20.9219C13.1491 20.494 12.9225 20.094 12.611 19.6595C12.4466 19.4336 12.2768 19.2121 12.1017 18.9953L12.0213 18.893C11.8637 18.6958 11.6975 18.4874 11.5356 18.2726C10.7613 17.2474 10 15.9777 10 14.0865C10 10.1284 12.9881 7 17 7C21.0119 7 24 10.1274 24 14.0874C24 15.9777 23.2388 17.2474 22.4644 18.2735C22.3025 18.4874 22.1363 18.6958 21.9788 18.894L21.8982 18.9953C21.7145 19.226 21.5439 19.4428 21.389 19.6595C21.0775 20.094 20.8509 20.4949 20.7301 20.9219C20.6743 21.0917 20.5589 21.2321 20.4081 21.3138C20.2573 21.3955 20.0827 21.4122 19.9206 21.3604C19.7585 21.3086 19.6215 21.1923 19.5381 21.0357C19.4546 20.8792 19.4312 20.6944 19.4727 20.52C19.6591 19.8633 19.9908 19.3079 20.3451 18.814C20.5219 18.5665 20.7117 18.3265 20.8964 18.094L20.9795 17.9898C21.137 17.7916 21.2901 17.5991 21.4406 17.4C22.1345 16.4791 22.6875 15.5163 22.6875 14.0874C22.6875 10.947 20.3337 8.39535 17 8.39535ZM14.1562 22.814H19.8438C20.0178 22.814 20.1847 22.8875 20.3078 23.0183C20.4309 23.1491 20.5 23.3266 20.5 23.5116C20.5 23.6967 20.4309 23.8741 20.3078 24.005C20.1847 24.1358 20.0178 24.2093 19.8438 24.2093H14.1562C13.9822 24.2093 13.8153 24.1358 13.6922 24.005C13.5691 23.8741 13.5 23.6967 13.5 23.5116C13.5 23.3266 13.5691 23.1491 13.6922 23.0183C13.8153 22.8875 13.9822 22.814 14.1562 22.814ZM14.8125 26.3023C14.8125 26.1173 14.8816 25.9398 15.0047 25.809C15.1278 25.6782 15.2947 25.6047 15.4688 25.6047H18.5312C18.7053 25.6047 18.8722 25.6782 18.9953 25.809C19.1184 25.9398 19.1875 26.1173 19.1875 26.3023C19.1875 26.4874 19.1184 26.6648 18.9953 26.7957C18.8722 26.9265 18.7053 27 18.5312 27H15.4688C15.2947 27 15.1278 26.9265 15.0047 26.7957C14.8816 26.6648 14.8125 26.4874 14.8125 26.3023Z" fill="#525252" fill-opacity="0.5"/>
<path d="M12.8259 18.1467L12.8248 18.1453L12.8204 18.1398C12.6649 17.9441 12.5112 17.7508 12.3599 17.5497C11.6509 16.6107 11.0625 15.5941 11.0625 14.0874C11.0625 10.8148 13.5224 8.14535 17 8.14535C20.4776 8.14535 22.9375 10.8148 22.9375 14.0874C22.9375 15.5941 22.349 16.6098 21.6403 17.5504L21.64 17.5508C21.4889 17.7507 21.3354 17.9439 21.1798 18.1396L21.1752 18.1453L21.1749 18.1457L21.0922 18.2494C21.0921 18.2495 21.092 18.2497 21.0918 18.2498C20.9069 18.4827 20.721 18.7179 20.5486 18.9593L20.5483 18.9597C20.203 19.4409 19.8904 19.9676 19.7148 20.5826C19.6888 20.6971 19.705 20.8174 19.7587 20.9181C19.8129 21.0199 19.8995 21.0912 19.9967 21.1222C20.0934 21.1531 20.1976 21.1435 20.2891 21.094C20.38 21.0447 20.4538 20.9581 20.4912 20.8481C20.6234 20.384 20.8675 19.9578 21.1856 19.5141M12.8259 18.1467L21.7025 18.8398M12.8259 18.1467L12.9083 18.2489L12.9099 18.2509L12.9141 18.2562C13.0966 18.4873 13.2808 18.7203 13.4526 18.9597C13.7976 19.4417 14.1105 19.9691 14.285 20.5851C14.3143 20.7008 14.2999 20.8239 14.2461 20.9272C14.1922 21.0309 14.1048 21.1035 14.0065 21.135C13.9088 21.1662 13.8033 21.156 13.7112 21.1049C13.6191 21.0537 13.5451 20.964 13.5096 20.8508C13.3774 20.3845 13.1328 19.9583 12.8142 19.5139L12.8131 19.5124C12.6466 19.2835 12.4745 19.0592 12.2972 18.8395L12.2177 18.7384L12.2166 18.737C12.0588 18.5395 11.8947 18.3338 11.7353 18.1221L11.7351 18.1219C10.9759 17.1168 10.25 15.8999 10.25 14.0865C10.25 10.2611 13.1315 7.25 17 7.25C20.8685 7.25 23.75 10.2602 23.75 14.0874C23.75 15.8998 23.0243 17.1166 22.265 18.1227L12.8259 18.1467ZM21.1856 19.5141C21.3446 19.2916 21.5188 19.0704 21.7025 18.8398M21.1856 19.5141C21.1857 19.5141 21.1858 19.514 21.1858 19.5139L21.389 19.6595L21.1856 19.5142C21.1856 19.5142 21.1856 19.5142 21.1856 19.5141ZM21.7025 18.8398L21.7025 18.8399L21.8982 18.9953L21.7027 18.8396C21.7026 18.8397 21.7026 18.8397 21.7025 18.8398ZM13.8743 23.8337L13.6922 24.005L13.8743 23.8337C13.7963 23.7507 13.75 23.6351 13.75 23.5116C13.75 23.3881 13.7963 23.2725 13.8743 23.1896C13.9518 23.1072 14.0536 23.064 14.1562 23.064H19.8438C19.9464 23.064 20.0482 23.1072 20.1257 23.1896C20.2037 23.2725 20.25 23.3881 20.25 23.5116C20.25 23.6351 20.2037 23.7507 20.1257 23.8337C20.0482 23.9161 19.9464 23.9593 19.8438 23.9593H14.1562C14.0536 23.9593 13.9518 23.9161 13.8743 23.8337ZM15.1868 26.6244L15.0047 26.7957L15.1868 26.6244C15.1088 26.5414 15.0625 26.4258 15.0625 26.3023C15.0625 26.1788 15.1088 26.0632 15.1868 25.9803L15.0047 25.809L15.1868 25.9803C15.2643 25.8979 15.3661 25.8547 15.4688 25.8547H18.5312C18.6339 25.8547 18.7357 25.8979 18.8132 25.9803C18.8912 26.0632 18.9375 26.1788 18.9375 26.3023C18.9375 26.4258 18.8912 26.5414 18.8132 26.6244C18.7357 26.7068 18.6339 26.75 18.5312 26.75H15.4688C15.3661 26.75 15.2643 26.7068 15.1868 26.6244Z" stroke="#525252" stroke-opacity="0.5" stroke-width="0.5"/>
</svg>
