<svg width="30" height="20" viewBox="0 0 30 20" fill="none" xmlns="http://www.w3.org/2000/svg">
<path d="M7.73397 13.3529L5.17628 10.8235C6.43483 9.60784 7.87607 8.67647 9.5 8.02941C11.1239 7.38235 12.8291 7.05883 14.6154 7.05883C16.4017 7.05883 18.1121 7.38745 19.7466 8.04471C21.3811 8.70196 22.817 9.64784 24.0545 10.8824L21.4968 13.3529C20.5833 12.4706 19.5326 11.7894 18.3447 11.3094C17.1568 10.8294 15.9137 10.589 14.6154 10.5882C13.3162 10.5882 12.0731 10.8286 10.886 11.3094C9.69893 11.7902 8.64825 12.4714 7.73397 13.3529ZM2.55769 8.35294L0 5.88235C1.92842 3.98039 4.15645 2.52432 6.6841 1.51412C9.21175 0.503923 11.8555 -0.000783401 14.6154 9.127e-07C17.3761 9.127e-07 20.0202 0.505099 22.5479 1.5153C25.0755 2.52549 27.3032 3.98118 29.2308 5.88235L26.6731 8.35294C25.0694 6.80392 23.2271 5.61294 21.146 4.78C19.065 3.94706 16.8881 3.5302 14.6154 3.52941C12.3419 3.52941 10.1646 3.94628 8.08352 4.78C6.00246 5.61373 4.16051 6.80471 2.55769 8.35294ZM14.6154 20L10.3221 15.8235C10.8905 15.2745 11.5453 14.8529 12.2867 14.5588C13.028 14.2647 13.8042 14.1176 14.6154 14.1176C15.4273 14.1176 16.204 14.2647 16.9453 14.5588C17.6866 14.8529 18.3411 15.2745 18.9087 15.8235L14.6154 20Z" fill="white"/>
</svg>
